# xmcd CD database file
#
# Track frame offsets:
#	150
#	26590
#	40887
#	57620
#	71835
#	89775
#	113827
#	129597
#
# Disc length: 2043 seconds
#
# Revision: 0
# Processed by: cddbd v1.5.1PL0 Copyright (c) Steve Scherf et al.
# Submitted via: CDex 1.51
#
DISCID=7707f908
DTITLE=Vari - I COLORI DELLA VITA - Amore e amicizia
DYEAR=2005
DGENRE=New Age
TTITLE0=Claudio Baglioni - Amore bello 
TTITLE1=Lucio Battisti - Un'avventura
TTITLE2=Lucio Dalla - Anna e Marco
TTITLE3=Riccardo Cocciante - Tu sei il mio amico carissimo
TTITLE4=Ron - Anima
TTITLE5=Luca Carboni - Farfallina
TTITLE6=Le Vibrazioni - Dedicato a te
TTITLE7=Roberto Vecchioni - Luci a S.Siro
EXTD=YEAR: 2005
EXTT0=
EXTT1=
EXTT2=
EXTT3=
EXTT4=
EXTT5=
EXTT6=
EXTT7=
PLAYORDER=
